<svg xmlns="http://www.w3.org/2000/svg" viewBox="0 0 527.36 83.94"><defs><style>.cls-1{fill:red;}.cls-2{fill:#3694cc;}.cls-3{fill:#3ea6eb;}</style></defs><title>Asset 1</title><g id="Layer_2" data-name="Layer 2"><g id="Layer_1-2" data-name="Layer 1"><path class="cls-1" d="M70.48,32.42c.62-.11,1.24-.2,1.88-.29v.29Z"/><path class="cls-2" d="M527.36,32.06v7.18a49.37,49.37,0,0,0-23.16,6.37c-11.83,6.68-15.87,8.7-27.2,6.17s-24.88-13.85-40.65-13.85-26,14-39.64,14-34.18-15.16-48.95-15.16-30.43,14.25-45.2,14.25-27.71-6.47-38.43-36.4c-1.82-3.54-6.72-9.2-11.57-3.39-7.44,9.56,2,63.36-8.25,70S226.21,78,220.85,64.52,207.1,24.17,206.6,32.67s-3.44,51.27-12.24,51.27c-10,0-12.64-15.17-13.75-18.3s-10.42-32.16-18.21-29S135.1,53.7,126.1,53.7c-14.46-.2-34.79-15-48.34-15,0,0-10.61-1.72-30.64,10.82-11.32,6.17-21.84-.13-27-3.2S7.48,38.23,0,38.23c0,0,7.58-1.36,22.3,8.44,5.16,3,13.4,7.08,22.45,2.33S64.26,36.76,78,36.76s33.16,13.4,47.32,13.4,19.22-14.32,38.83-14.32c4,0,15.07,10.08,27,36.27.81,1.21,1.72-1.32,1.42-7.08,1.62-18.67-2-49.35,13-49.35,21.54-.2,28.12,66.74,33.38,54.61,5.35-20.73,2.52-62.4,18.5-62.4,14.26,0,8.6,41.26,44.29,41.26,23.16,0,26.29-22.85,62.9-11.53S389.73,52.49,414.51,40c43.68-16.79,56.73,13.95,77.86,5.36C510.17,37.93,512.7,32.47,527.36,32.06Z"/><path class="cls-3" d="M317.85,42.67c1.37-.74,2.72-1.53,4.09-2.33l.09-.05a71.23,71.23,0,0,1,10.09-5.17V33.61h4.72a38,38,0,0,1,4.69-.85h0V20.9h-9.42V1.06H317.85V20.9h-9.37V33.61h9.37Z"/><path class="cls-3" d="M272.63,26l.51,1.14.15.32c.22.48.45.95.68,1.42l.11.22.6,1.18.21.39c.21.39.43.78.65,1.17l.12.23c.27.45.54.9.82,1.34a3.45,3.45,0,0,0,.2.32c.22.35.45.7.68,1l.25.36c.31.44.62.87.94,1.29a5.66,5.66,0,0,1,1.59-4.08,5.31,5.31,0,0,1,4-1.65,5.49,5.49,0,0,1,4.26,1.68A6.57,6.57,0,0,1,289.92,37v.34h12.82q-.45-8.54-5.21-13.27t-13-4.74a18.09,18.09,0,0,0-12.7,4.92c.19.47.39.93.6,1.4Z"/><path class="cls-3" d="M50.17,43.72l.42-.24,1.16-.64L52,42.7a76.78,76.78,0,0,1,12-5.5h0V33.61H74.25V20.9h-10V19.79q0-3.67,2.09-5.27t6.94-1.59h1V.11c-.38,0-.89,0-1.54,0S71.59,0,71.29,0Q60.43,0,55.07,4.77T49.72,19.23V20.9H42.86V33.61h7.31Z"/><path class="cls-3" d="M82.85,35.23h0a58.84,58.84,0,0,1,8.66,2.32h0l1.74.61.11,0,1.74.64V1.06H81.21V35h0C81.76,35.05,82.3,35.13,82.85,35.23Z"/><path class="cls-3" d="M105.57,43l1.26.49.46.18,1.3.5.38.14,1.44.53.23.08a69.68,69.68,0,0,0,8.47,2.53h0a17,17,0,0,1,4.55-9.25A18,18,0,0,1,148,37.55h0c.5-.25,1-.49,1.54-.72l.06,0a35.08,35.08,0,0,1,13.63-2.94h0a32.82,32.82,0,0,0-4.91-6,32,32,0,0,0-10.28-6.6,33.17,33.17,0,0,0-12.24-2.21,30.39,30.39,0,0,0-12,2.48,33.19,33.19,0,0,0-10.42,7.11A31.08,31.08,0,0,0,106.49,39a32.88,32.88,0,0,0-1.27,3.82Z"/><path class="cls-3" d="M460,36.7l.32.11c.86.32,1.7.65,2.53,1l.38.15,2.46,1,.19.08,2.48,1.06,1.7.73a16.59,16.59,0,0,1,4.48-5.16,16.37,16.37,0,0,1,10.2-3.45,17.83,17.83,0,0,1,10.9,3.2,15.56,15.56,0,0,1,4,4.4c1.63-.82,3.11-1.59,4.49-2.34l1.66-.89,1.49-.8.16-.08c.41-.23.83-.45,1.24-.66l.31-.16,1.2-.61.21-.11,1.43-.68c-.14-.2-.27-.41-.41-.6a34.29,34.29,0,0,0-11.76-10.2,31.55,31.55,0,0,0-14.89-3.63,29.36,29.36,0,0,0-12.21,2.68,33.35,33.35,0,0,0-10.59,7.64,31.43,31.43,0,0,0-4.69,6.36C458.19,36.05,459.1,36.37,460,36.7Z"/><path class="cls-3" d="M484.63,44.86h0c.62,0,1.24,0,1.85-.1h-3.77C483.35,44.82,484,44.86,484.63,44.86Z"/><path class="cls-3" d="M426.32,34.3a66.13,66.13,0,0,1,6.6-1.08H433c1-.11,2-.19,3-.25l.26,0c1.06-.06,2.13-.09,3.18-.09.81,0,1.6,0,2.38,0h.25c.7,0,1.39.08,2.07.14h.16c1.48.13,2.91.32,4.3.55H450V20.9h-9.43V1.06H426.32V20.9H417V33.61h9.36Z"/><path class="cls-3" d="M351.65,32.78l.68.07,1.24.16.83.13,1.18.19,1.9.36.87.2,1.38.31.88.22c.51.12,1,.26,1.54.4l.74.2,2.35.69.66.21,1.23.38.05,0a16.81,16.81,0,0,1,9.59-2.82,16.2,16.2,0,0,1,12.07,5.38,18.15,18.15,0,0,1,4.1,6.59c.46.12.88.2,1.29.27l.27,0a10,10,0,0,0,1.2.09c2.88,0,6.05-1.63,13-5.2l.68-.35V20.9H395.44v7.42a18.38,18.38,0,0,0-7.77-6.75,27.35,27.35,0,0,0-11.51-2.23,32.34,32.34,0,0,0-12.55,2.32,29.38,29.38,0,0,0-10.14,7.16,31,31,0,0,0-3.13,3.83h0C350.78,32.68,351.21,32.73,351.65,32.78Z"/><path class="cls-3" d="M406.49,51.92l-.34.13-1.1.4-.39.14c-.41.14-.82.26-1.23.38l-.22.07c-.48.14-1,.26-1.46.37l-.38.08-1.09.2-.52.07c-.34.05-.68.09-1,.12l-.5,0c-.48,0-1,0-1.44,0h-.37c-.37,0-.73,0-1.1,0l-.2,0-1.24-.12h0a17,17,0,0,1-5,10.19A16.12,16.12,0,0,1,377,69.23,17,17,0,0,1,364.42,64a17.66,17.66,0,0,1-5.15-13,17,17,0,0,1,2.44-9h0c-1.86-.7-3.7-1.32-5.48-1.83l-.08,0c-.53-.15-1-.28-1.56-.41l-.43-.1c-.4-.1-.8-.18-1.19-.26l-.54-.11-1.06-.18L350.8,39l-1.05-.11-.5-.05c-.49,0-1,0-1.44,0h-.05l-.74,0L347,39a33,33,0,0,0-2.29,12.26q0,13.77,9.12,23t22.71,9.28a28.19,28.19,0,0,0,11.9-2.17,15.77,15.77,0,0,0,7.22-6.75v7.53h13.77V50.65h0C408.41,51.11,407.46,51.53,406.49,51.92Z"/><path class="cls-3" d="M440.59,40.22c-.65-.08-1.3-.15-2-.2l-.22,0c-.67,0-1.35-.07-2-.07h0c-.46,0-.92,0-1.38,0l-.5,0-.83.07-.69.09-.61.09-.8.15-.47.09-.89.21-.35.09c-.33.08-.65.17-1,.27l-.23.07c-.35.1-.7.22-1.05.34l-.12,0c-.38.13-.75.26-1.12.41h0V82.22h14.27v-42Z"/><path class="cls-3" d="M325.86,45.82c-2.64,1.24-5.31,2.49-8,3.59h0v32.8h14.27V43c-2,.88-4.09,1.84-6.11,2.79Z"/><path class="cls-3" d="M513.9,43.57l-.57.18-.88.31-.88.32-.71.27-1.58.66-.52.24-1.29.61-.52.26c-.59.29-1.18.6-1.77.94-8.71,4.91-13.56,7.47-20.13,7.47a38.94,38.94,0,0,1-8.49-1.1,55.54,55.54,0,0,1-11.35-4.32c-1-.48-2-1-3.1-1.49-2.58-1.25-5.27-2.55-8.06-3.73a34.11,34.11,0,0,0-.8,7.43,32.92,32.92,0,0,0,9.14,22.63,31,31,0,0,0,10.34,7.16,32.19,32.19,0,0,0,12.62,2.43,30.13,30.13,0,0,0,18-5.55A33.39,33.39,0,0,0,515,62.71H499.63a15.4,15.4,0,0,1-6.05,5.63,18.24,18.24,0,0,1-8.62,2q-7.18,0-11.73-3.82A15.25,15.25,0,0,1,468,56.08h49.11c0-.34,0-.85.06-1.54s0-1.19,0-1.53a42,42,0,0,0-1.13-10.09C515.35,43.11,514.63,43.33,513.9,43.57Z"/><path class="cls-3" d="M166.43,40.2a6.37,6.37,0,0,0-.52-.52l0,0a6.67,6.67,0,0,0-.88-.71l0,0a3.72,3.72,0,0,0-.66-.36l-.05,0-.24-.08h0l-.19,0h-.18a1.25,1.25,0,0,0-.46.09c-.31.12-.65.27-1,.44l-.06,0-1.07.51-.17.09-1.08.56-.24.13-1.11.59-.3.17-1.13.63-.3.17-1.21.68-.22.13-2.78,1.6a19.59,19.59,0,0,1,1.1,6.64q0,8.64-4.71,13.74t-12.63,5.1q-8,0-12.71-5a17.49,17.49,0,0,1-4.44-10,72.28,72.28,0,0,1-9.22-3h0L108,51l-.13-.05-1.77-.73-.08,0-1.86-.79c0,.62-.06,1.23-.06,1.85a32.6,32.6,0,0,0,2.29,12.18A33.61,33.61,0,0,0,113.15,74a30.37,30.37,0,0,0,23,9.81,32.82,32.82,0,0,0,12.71-2.43,30.66,30.66,0,0,0,10.42-7.16,31.34,31.34,0,0,0,6.86-10.48A34.77,34.77,0,0,0,168.39,51a30.71,30.71,0,0,0-1.95-10.75Z"/><path class="cls-3" d="M95.09,45.54l-1.73-.71-.06,0c-1.8-.73-3.58-1.4-5.31-2l-.16,0-1.57-.5-.13,0a38.63,38.63,0,0,0-4.91-1.18h0V82.22H95.15V45.57Z"/><path class="cls-3" d="M64,43.3q-2.11.78-4.54,1.87l-.1,0c-.53.24-1.07.49-1.62.76l-.15.07c-1.65.8-3.41,1.72-5.28,2.78l-.22.13L50.18,50h0V82.22H64V43.3Z"/><path class="cls-3" d="M301,53c-.82,0-1.64-.08-2.44-.16l-.38,0a34.25,34.25,0,0,1-4.62-.78L293.2,52c-.74-.18-1.48-.39-2.2-.62l-.09,0c-.7-.23-1.39-.49-2.07-.77l-.25-.1c-.7-.29-1.38-.61-2.06-1l-.18-.1c-.66-.34-1.31-.7-1.94-1.09l-.11-.06c-.66-.41-1.3-.84-1.94-1.3l-.21-.16a34.48,34.48,0,0,1-3.7-3.13l-.19-.19a42.14,42.14,0,0,1-3.47-3.86c-.05-.06-.1-.13-.16-.19a55.87,55.87,0,0,1-3.29-4.68l-.09-.12c-.53-.85-1.05-1.72-1.57-2.63l-.07-.13c-.52-.92-1-1.86-1.53-2.84A18,18,0,0,0,266,37.79a18.08,18.08,0,0,0,1.62,7.83,18,18,0,0,0,5,6.22,24.59,24.59,0,0,0,5.29,2.62c2.75,1.11,4.83,2,6.25,2.62a15.51,15.51,0,0,1,5.18,3.54,6.86,6.86,0,0,1,1.45,4.49,6.43,6.43,0,0,1-2,4.85,7.08,7.08,0,0,1-5.1,1.89,6.57,6.57,0,0,1-5.35-2.53,10.15,10.15,0,0,1-2.06-6.61v-.84l-13,.06q.51,10.09,5.94,16t14.3,5.91a20.15,20.15,0,0,0,14.6-5.61,18.89,18.89,0,0,0,5.8-14.18q0-6.91-2.86-11Z"/></g></g></svg>